<?xml version="1.0" encoding="iso-8859-1"?>
<!-- Generator: Adobe Illustrator 19.0.0, SVG Export Plug-In . SVG Version: 6.00 Build 0)  -->
<svg version="1.1" id="Layer_1" xmlns="http://www.w3.org/2000/svg" xmlns:xlink="http://www.w3.org/1999/xlink" x="0px" y="0px"
	 viewBox="0 0 511.999 511.999" style="enable-background:new 0 0 511.999 511.999;" xml:space="preserve">
<g>
	<g>
		<path d="M153.334,0h-46.543C87.029,0,69.634,10.282,59.64,25.767H0v460.464h59.64c9.994,15.485,27.389,25.767,47.151,25.767
			h46.543c19.762,0,37.158-10.282,47.152-25.767h311.513V25.767H200.487C190.492,10.282,173.097,0,153.334,0z M50.698,455.814
			H30.417V56.185h20.281V455.814z M179.009,455.908c0,0.781-0.04,1.555-0.109,2.326c-0.005,0.053-0.007,0.105-0.012,0.157
			c-0.072,0.741-0.179,1.478-0.315,2.209c-0.014,0.075-0.026,0.15-0.041,0.226c-0.141,0.72-0.314,1.433-0.516,2.138
			c-0.021,0.076-0.043,0.152-0.065,0.228c-0.207,0.697-0.445,1.385-0.713,2.067c-3.747,9.545-13.047,16.324-23.905,16.324h-46.542
			v-0.001c-10.858,0-20.156-6.779-23.904-16.324c-0.267-0.679-0.504-1.368-0.711-2.062c-0.024-0.081-0.047-0.163-0.07-0.244
			c-0.2-0.698-0.371-1.403-0.511-2.115c-0.017-0.086-0.03-0.174-0.047-0.263c-0.133-0.718-0.239-1.442-0.31-2.171
			c-0.006-0.067-0.009-0.136-0.015-0.203c-0.068-0.759-0.107-1.525-0.107-2.294V56.092c0-0.77,0.041-1.535,0.107-2.294
			c0.006-0.067,0.009-0.136,0.015-0.203c0.071-0.729,0.177-1.453,0.31-2.171c0.016-0.088,0.03-0.176,0.047-0.263
			c0.139-0.712,0.311-1.416,0.511-2.115c0.023-0.081,0.046-0.163,0.07-0.245c0.207-0.695,0.444-1.382,0.711-2.061
			c3.747-9.544,13.046-16.323,23.904-16.323h46.543c10.859,0,20.158,6.779,23.905,16.324c0.267,0.681,0.506,1.371,0.712,2.067
			c0.022,0.075,0.043,0.151,0.065,0.228c0.202,0.706,0.376,1.418,0.516,2.138c0.014,0.075,0.026,0.15,0.041,0.226
			c0.136,0.731,0.243,1.466,0.315,2.209c0.005,0.053,0.007,0.105,0.012,0.157c0.069,0.771,0.109,1.545,0.109,2.326V455.908z
			 M209.429,56.185h272.154v399.631H209.429V56.185z"/>
	</g>
</g>
<g>
	<g>
		<path d="M224.637,73.92v102.141h241.737V73.92H224.637z M435.957,145.644H255.055v-41.307h180.902V145.644z"/>
	</g>
</g>
<g>
	<g>
		<path d="M395.934,196.341h-30.417h-40.023h-30.417h-70.44v70.44v30.417v40.023v30.417v70.44h70.44h30.417h40.023h30.417h70.44
			v-70.44v-30.417v-40.023v-30.417v-70.44H395.934z M295.077,407.663h-40.023V367.64h40.023V407.663z M295.078,337.223h-40.023
			V297.2h40.023V337.223z M295.078,266.782h-40.023v-40.023h40.023V266.782z M365.517,407.662h-40.023v-40.023h40.023V407.662z
			 M365.517,337.223h-40.023V297.2h40.023V337.223z M365.517,266.782h-40.023v-40.023h40.023V266.782z M435.957,407.662h-40.023
			v-40.023h40.023V407.662z M435.957,337.223h-40.023V297.2h40.023V337.223z M435.957,266.782h-40.023v-40.023h40.023V266.782z"/>
	</g>
</g>
<g>
</g>
<g>
</g>
<g>
</g>
<g>
</g>
<g>
</g>
<g>
</g>
<g>
</g>
<g>
</g>
<g>
</g>
<g>
</g>
<g>
</g>
<g>
</g>
<g>
</g>
<g>
</g>
<g>
</g>
</svg>
