<svg xmlns="http://www.w3.org/2000/svg" xmlns:xlink="http://www.w3.org/1999/xlink" version="1.1" x="0px" y="0px" viewBox="0 0 512 512" xml:space="preserve" >
			<path d="M185.996,242.13h140.002c5.523,0,10-4.478,10-10v-39.998c0-5.523-4.477-10-10-10H185.996c-5.523,0-10,4.477-10,10v39.998     C175.996,237.653,180.474,242.13,185.996,242.13z M195.996,202.132h120.002v19.998H195.996V202.132z"/>
			<path d="M335.961,271.403c-0.01-0.142-0.018-0.284-0.035-0.425c-0.022-0.184-0.053-0.368-0.084-0.552     c-0.023-0.141-0.045-0.281-0.076-0.419c-0.039-0.181-0.088-0.359-0.138-0.538c-0.038-0.136-0.071-0.271-0.114-0.404     c-0.058-0.18-0.127-0.355-0.195-0.532c-0.049-0.126-0.094-0.252-0.146-0.375c-0.076-0.177-0.164-0.349-0.252-0.522     c-0.059-0.118-0.115-0.237-0.18-0.352c-0.092-0.166-0.194-0.327-0.297-0.488c-0.073-0.116-0.145-0.233-0.223-0.347     c-0.105-0.15-0.219-0.297-0.332-0.443c-0.09-0.115-0.179-0.23-0.273-0.341c-0.045-0.054-0.084-0.111-0.131-0.164     c-0.078-0.09-0.166-0.167-0.248-0.253c-0.094-0.1-0.188-0.197-0.285-0.292c-0.147-0.143-0.298-0.278-0.451-0.41     c-0.088-0.075-0.176-0.148-0.266-0.221c-0.17-0.137-0.344-0.266-0.522-0.39c-0.083-0.059-0.168-0.116-0.253-0.172     c-0.187-0.122-0.376-0.237-0.569-0.346c-0.09-0.051-0.18-0.099-0.269-0.146c-0.194-0.102-0.391-0.196-0.59-0.284     c-0.101-0.045-0.201-0.086-0.303-0.127c-0.197-0.079-0.397-0.152-0.598-0.219c-0.109-0.036-0.219-0.07-0.33-0.103     c-0.203-0.059-0.408-0.111-0.615-0.158c-0.109-0.024-0.22-0.048-0.33-0.068c-0.221-0.041-0.441-0.074-0.664-0.101     c-0.1-0.013-0.198-0.024-0.299-0.033c-0.244-0.021-0.489-0.033-0.735-0.037c-0.054-0.001-0.104-0.008-0.159-0.008H185.996     c-0.06,0-0.117,0.008-0.178,0.009c-0.234,0.005-0.469,0.015-0.703,0.036c-0.11,0.009-0.219,0.022-0.329,0.035     c-0.212,0.026-0.421,0.058-0.632,0.097c-0.121,0.022-0.24,0.048-0.361,0.075c-0.195,0.044-0.39,0.094-0.583,0.149     c-0.121,0.035-0.241,0.072-0.36,0.111c-0.191,0.063-0.381,0.133-0.568,0.208c-0.111,0.045-0.22,0.09-0.328,0.138     c-0.191,0.085-0.381,0.177-0.568,0.273c-0.097,0.051-0.193,0.102-0.289,0.156c-0.188,0.105-0.371,0.218-0.553,0.336     c-0.09,0.06-0.18,0.12-0.268,0.182c-0.174,0.121-0.344,0.248-0.51,0.381c-0.094,0.075-0.184,0.151-0.275,0.228     c-0.15,0.13-0.299,0.264-0.443,0.404c-0.1,0.096-0.195,0.195-0.29,0.295c-0.081,0.086-0.168,0.163-0.247,0.252     c-0.047,0.053-0.085,0.11-0.131,0.164c-0.094,0.11-0.183,0.226-0.271,0.341c-0.115,0.146-0.229,0.293-0.332,0.443     c-0.078,0.113-0.15,0.23-0.225,0.347c-0.102,0.161-0.204,0.322-0.296,0.488c-0.064,0.114-0.12,0.233-0.181,0.352     c-0.086,0.173-0.174,0.345-0.25,0.522c-0.055,0.123-0.1,0.249-0.148,0.375c-0.068,0.177-0.137,0.353-0.194,0.532     c-0.042,0.133-0.077,0.268-0.114,0.404c-0.049,0.179-0.1,0.357-0.139,0.538c-0.029,0.138-0.051,0.278-0.076,0.419     c-0.031,0.184-0.063,0.367-0.084,0.552c-0.016,0.141-0.024,0.282-0.035,0.425c-0.014,0.189-0.025,0.377-0.028,0.566     c-0.001,0.056-0.009,0.11-0.009,0.166V372c-0.002,5.522,4.476,10,9.998,10h140.002c5.523,0,10-4.478,10-10v-99.865     c0-0.056-0.007-0.11-0.008-0.166C335.987,271.78,335.974,271.591,335.961,271.403z M299.619,282.133l-43.621,38.63l-43.621-38.63     H299.619z M315.998,362H195.996v-67.656l53.371,47.265c1.893,1.676,4.262,2.514,6.631,2.514c2.368,0,4.736-0.838,6.629-2.514     l53.371-47.265V362z" />
			<path d="M326.233,447h-0.238c-5.522,0-10,4.478-10,10c0,5.522,4.478,10,10,10h0.238c5.523,0,10-4.478,10-10     C336.233,451.479,331.756,447,326.233,447z" />
			<path d="M265.762,162.135h0.237c5.523,0,10-4.477,10-10c0-5.522-4.477-10-10-10h-0.237c-5.523,0-10,4.478-10,10     C255.762,157.658,260.239,162.135,265.762,162.135z" />
			<path d="M185.996,162.135h51.035c5.523,0,10-4.477,10-10c0-5.522-4.477-10-10-10h-51.035c-5.523,0-10,4.478-10,10     C175.996,157.658,180.474,162.135,185.996,162.135z" />
			<path d="M427.034,492h-11.036V457c0-0.016-0.003-0.03-0.003-0.046c-0.002-0.343-0.021-0.682-0.056-1.016     c-0.01-0.085-0.027-0.169-0.039-0.254c-0.035-0.268-0.075-0.534-0.131-0.794c-0.004-0.02-0.006-0.04-0.01-0.06l-10-44.999     c-1.018-4.576-5.075-7.831-9.762-7.831h-19.998V162.135h9.999c5.523,0,10-4.477,10-10c0-5.522-4.477-10-10-10h-9.999v-19.998     h9.999c3.344,0,6.466-1.671,8.32-4.453l20-30.001c0.022-0.031,0.035-0.066,0.057-0.098c0.23-0.355,0.448-0.723,0.637-1.115     c0.181-0.376,0.328-0.759,0.458-1.145c0.026-0.08,0.049-0.161,0.073-0.241c0.104-0.335,0.189-0.671,0.257-1.009     c0.015-0.073,0.03-0.145,0.044-0.218c0.145-0.827,0.183-1.657,0.119-2.477c-0.006-0.078-0.015-0.155-0.022-0.233     c-0.035-0.351-0.088-0.698-0.159-1.041c-0.015-0.069-0.025-0.139-0.041-0.208c-0.092-0.401-0.208-0.795-0.348-1.181     c-0.022-0.061-0.05-0.118-0.072-0.178c-0.13-0.336-0.277-0.663-0.443-0.982c-0.023-0.046-0.038-0.095-0.063-0.141     c-0.018-0.033-0.041-0.062-0.059-0.095c-0.398-0.726-0.889-1.403-1.463-2.018c-0.059-0.062-0.117-0.12-0.177-0.181     c-0.245-0.249-0.505-0.486-0.778-0.711c-0.053-0.043-0.102-0.089-0.156-0.131c-0.32-0.253-0.658-0.489-1.016-0.705     c-0.053-0.032-0.109-0.058-0.164-0.089c-0.219-0.126-0.438-0.253-0.668-0.364L260.332,0.989c-2.74-1.318-5.93-1.318-8.668,0     l-150,72.136c-0.225,0.108-0.438,0.232-0.65,0.354c-0.063,0.036-0.127,0.066-0.189,0.104c-0.353,0.213-0.686,0.446-1.003,0.695     c-0.062,0.049-0.12,0.103-0.181,0.152c-0.263,0.217-0.512,0.444-0.748,0.684c-0.066,0.067-0.135,0.135-0.199,0.204     c-0.564,0.605-1.048,1.272-1.441,1.987c-0.021,0.039-0.051,0.073-0.071,0.113c-0.029,0.055-0.048,0.113-0.075,0.168     c-0.152,0.297-0.289,0.601-0.41,0.911c-0.031,0.08-0.068,0.158-0.098,0.239c-0.135,0.374-0.246,0.756-0.337,1.143     c-0.021,0.091-0.035,0.183-0.054,0.273c-0.064,0.317-0.113,0.637-0.146,0.96c-0.011,0.099-0.021,0.196-0.029,0.294     c-0.06,0.805-0.021,1.619,0.119,2.431c0.016,0.091,0.035,0.182,0.054,0.272c0.063,0.315,0.144,0.629,0.239,0.94     c0.029,0.099,0.057,0.197,0.09,0.295c0.129,0.379,0.273,0.756,0.452,1.126c0.002,0.004,0.005,0.008,0.007,0.012     c0.199,0.412,0.427,0.813,0.686,1.201l0.025,0.039c0.008,0.012,0.016,0.023,0.023,0.034l19.952,29.928     c1.854,2.782,4.978,4.453,8.32,4.453h9.999v19.998h-10c-5.522,0-10,4.478-10,10c0,5.523,4.478,10,10,10h9.999v239.867H116     c-4.688,0-8.745,3.255-9.762,7.83l-10.002,44.999c-0.158,0.713-0.238,1.44-0.238,2.17V492H84.965c-5.523,0-10,4.478-10,10     c0,5.522,4.477,10,10,10h21.033H106h299.998h21.036c5.522,0,10-4.478,10-10C437.034,496.477,432.557,492,427.034,492z      M255.998,21.096l106.133,51.039H149.865L255.998,21.096z M131.35,102.137l-6.666-10.001h262.629l-6.666,10.001h-14.648H145.998     H131.35z M355.999,122.137v279.861H155.998V122.137H355.999z M395.998,492h-280v-33.901l8.023-36.097h263.955l5.556,25.003     h-38.57c-5.522,0-10,4.478-10,10c0,5.522,4.478,10,10,10h41.036V492z" />
			<path d="M456,492h-0.236c-5.523,0-10,4.478-10,10c0,5.522,4.477,10,10,10H456c5.522,0,10-4.478,10-10     C466,496.477,461.523,492,456,492z"/>
			<path d="M56.237,492h-0.238c-5.524,0-10,4.478-10,10c0,5.522,4.476,10,10,10h0.238c5.522,0,10-4.478,10-10     C66.237,496.477,61.759,492,56.237,492z" />
</svg>
