<svg xmlns="http://www.w3.org/2000/svg" viewBox="0 0 57.17 57.17"><defs><style>.cls-1{fill:#fff;}</style></defs><title>fb_white</title><g id="Слой_2" data-name="Слой 2"><g id="Слой_1-2" data-name="Слой 1"><rect class="cls-1" x="7.88" width="0.43" height="57.17"/><rect class="cls-1" x="48.87" width="0.43" height="57.17"/><rect class="cls-1" x="28.37" y="20.5" width="0.43" height="57.17" transform="translate(-20.5 77.67) rotate(-90)"/><rect class="cls-1" x="28.37" y="-19.5" width="0.43" height="57.17" transform="translate(19.5 37.68) rotate(-90)"/><rect class="cls-1" x="8" y="9" width="1" height="16.13"/><rect class="cls-1" x="15.57" y="1.44" width="1" height="16.13" transform="translate(6.56 25.57) rotate(-90)"/><rect class="cls-1" x="48.09" y="33.05" width="1" height="16.13" transform="translate(97.18 82.22) rotate(180)"/><rect class="cls-1" x="40.53" y="40.61" width="1" height="16.13" transform="translate(89.7 7.65) rotate(90)"/><path class="cls-1" d="M30.48,41.1H26v-12H23V24.95h3V22.51c0-3.38.92-5.43,4.89-5.43h3.31v4.14H32.11c-1.55,0-1.62.58-1.62,1.66v2.07H34.2l-.44,4.14H30.48Z"/></g></g></svg>