<svg xmlns="http://www.w3.org/2000/svg" viewBox="0 0 57.17 57.17"><defs><style>.cls-1{fill:#fff;}</style></defs><title>link_white</title><g id="Слой_2" data-name="Слой 2"><g id="Слой_1-2" data-name="Слой 1"><rect class="cls-1" x="7.88" width="0.43" height="57.17"/><rect class="cls-1" x="48.87" width="0.43" height="57.17"/><rect class="cls-1" x="28.37" y="20.5" width="0.43" height="57.17" transform="translate(-20.5 77.67) rotate(-90)"/><rect class="cls-1" x="28.37" y="-19.5" width="0.43" height="57.17" transform="translate(19.5 37.68) rotate(-90)"/><rect class="cls-1" x="8" y="9" width="1" height="16.13"/><rect class="cls-1" x="15.57" y="1.44" width="1" height="16.13" transform="translate(6.56 25.57) rotate(-90)"/><rect class="cls-1" x="48.09" y="33.05" width="1" height="16.13" transform="translate(97.18 82.22) rotate(180)"/><rect class="cls-1" x="40.53" y="40.61" width="1" height="16.13" transform="translate(89.7 7.65) rotate(90)"/><path class="cls-1" d="M21.46,19.18a2.39,2.39,0,1,0,2.38,2.38A2.39,2.39,0,0,0,21.46,19.18Z"/><rect class="cls-1" x="19.41" y="25.76" width="4.11" height="13.24"/><path class="cls-1" d="M34,25.43a4.32,4.32,0,0,0-3.89,2.14H30V25.76H26.1V39h4.11V32.45c0-1.73.33-3.4,2.47-3.4s2.14,2,2.14,3.51V39h4.11V31.74C38.93,28.17,38.16,25.43,34,25.43Z"/></g></g></svg>