<svg xmlns="http://www.w3.org/2000/svg" viewBox="0 0 89.95 105.47"><defs><style>.cls-1{fill:#fff;}.cls-2{fill:none;stroke:#b1b0b0;stroke-miterlimit:10;stroke-width:0.25px;}</style></defs><title>Logo_SD_shape</title><g id="Слой_2" data-name="Слой 2"><g id="Слой_1-2" data-name="Слой 1"><rect class="cls-1" x="27.33" y="-22.42" width="0.11" height="54.77" transform="translate(22.42 32.35) rotate(-90)"/><rect class="cls-1" x="24.88" y="50.07" width="0.11" height="49.86" transform="translate(-50.07 99.93) rotate(-90)"/><rect class="cls-1" x="61.86" y="72.51" width="0.11" height="56.07" transform="translate(-38.63 162.45) rotate(-90)"/><rect class="cls-1" x="54.95" y="4.41" width="0.11" height="69.88" transform="translate(15.65 94.36) rotate(-90)"/><rect class="cls-1" x="84.97" y="34.02" width="0.11" height="71.45"/><rect class="cls-1" x="50.66" y="22.6" width="0.11" height="64.49" transform="translate(30.12 -16.96) rotate(26.76)"/><rect class="cls-1" x="36.63" y="23.9" width="0.11" height="64.49" transform="translate(28.51 -10.42) rotate(26.15)"/><rect class="cls-1" x="5.3" y="0.08" width="0.12" height="80.12"/><rect class="cls-1" x="50.34" width="0.11" height="105.47"/><path class="cls-1" d="M47.69,37.58"/><rect class="cls-1" x="39.5" y="34.02" width="0.11" height="71.45"/><path class="cls-2" d="M50.39,16.05,39.46,23.19a17,17,0,0,0-13.08-6,7.9,7.9,0,0,0-4.75,1.34,3.76,3.76,0,0,0-1.85,3,4.73,4.73,0,0,0,1.32,3.17q1.79,2,10.82,8.57,8.44,6.08,10.24,7.66a27.17,27.17,0,0,1,6.36,7.46,16.44,16.44,0,0,1,1.87,7.77A16.72,16.72,0,0,1,43.8,69.73q-6.59,5.35-17.19,5.35a28.71,28.71,0,0,1-14.42-3.49c-4.1-2.33-6.95-5.7-6.95-11.33l8.82-6.08Q19.66,63,26.94,63a10.47,10.47,0,0,0,6.38-1.9,5.44,5.44,0,0,0,2.59-4.4,7,7,0,0,0-2-4.53q-2-2.27-8.6-6.94Q12.69,36.36,9,31.54A15.83,15.83,0,0,1,5.3,21.9Q5.3,15,11.44,10A23.35,23.35,0,0,1,26.61,5a27.11,27.11,0,0,1,11,2.31A44.8,44.8,0,0,1,50.39,16.05Z"/><path class="cls-1" d="M27.55,75.11,45,39.3H40.11c-1.78-1.37-4.56-3.39-8.19-6-6-4.38-9.5-7.28-10.69-8.61a4.57,4.57,0,0,1-1.33-3.09,3.56,3.56,0,0,1,1.66-3,7.84,7.84,0,0,1,4.73-1.34c4,0,9.69,2.29,13.5,6.88L50.45,16A45.1,45.1,0,0,0,37.51,7.39a26.86,26.86,0,0,0-11-2.31,23.16,23.16,0,0,0-15.09,5c-4.08,3.31-6.13,7.28-6.11,11.9A15.83,15.83,0,0,0,9,31.57q3.69,4.82,16.28,13.71,6.62,4.67,8.56,6.94a7,7,0,0,1,1.94,4.53,5.44,5.44,0,0,1-2.57,4.4,10.38,10.38,0,0,1-6.35,1.9q-7.25,0-12.81-8.84L5.25,60.29c0,5.63,2.84,9,6.91,11.33a28.45,28.45,0,0,0,14.35,3.49Z"/><path class="cls-1" d="M81.15,53.37q-3.94-7.46-10-10.77A30.6,30.6,0,0,0,58.5,39.3L52.83,50.54h1.33q10.18,0,14.78,4.84Q74,60.76,74.05,70.52A24,24,0,0,1,71.9,81.2a13.54,13.54,0,0,1-5.52,6.17Q63,89.21,55.52,89.21H50.45V55.31L39.5,77l.12,23.6H52.74q11.14,0,15.66-1.5a21.26,21.26,0,0,0,8.4-5.42,27.23,27.23,0,0,0,6.08-9.85,37.2,37.2,0,0,0,2.2-13A36.79,36.79,0,0,0,81.15,53.37Z"/></g></g></svg>