<svg xmlns="http://www.w3.org/2000/svg" viewBox="0 0 79.94 58"><defs><style>.cls-1{fill:#fff;}.cls-2{fill:none;stroke:#fff;stroke-miterlimit:10;stroke-width:0.5px;}</style></defs><title>phone_white</title><g id="Слой_2" data-name="Слой 2"><g id="Слой_1-2" data-name="Слой 1"><rect class="cls-1" x="36.61" y="-30.08" width="0.43" height="67.23" transform="translate(33.29 40.35) rotate(-90)"/><rect class="cls-1" x="36.63" y="-26.72" width="0.43" height="67.23" transform="translate(29.94 43.74) rotate(-90)"/><rect class="cls-1" x="36.62" y="20.62" width="0.43" height="67.23" transform="translate(-17.4 91.07) rotate(-90)"/><rect class="cls-1" x="36.59" y="17.25" width="0.43" height="67.23" transform="translate(-14.07 87.67) rotate(-90)"/><rect class="cls-1" x="6.64" width="0.43" height="14.39" transform="translate(13.7 14.39) rotate(-180)"/><rect class="cls-1" x="10.34" width="0.43" height="14.39" transform="translate(21.1 14.39) rotate(-180)"/><rect class="cls-1" x="6.64" y="44.36" width="0.43" height="13.64" transform="translate(13.7 102.36) rotate(-180)"/><rect class="cls-1" x="10.34" y="44.36" width="0.43" height="13.64" transform="translate(21.1 102.36) rotate(180)"/><rect class="cls-1" x="6.55" y="18.03" width="0.43" height="9.29" transform="translate(13.53 45.36) rotate(-180)"/><rect class="cls-1" x="10.25" y="18.03" width="0.43" height="9.29" transform="translate(20.93 45.36) rotate(180)"/><rect class="cls-1" x="6.64" y="31.02" width="0.43" height="9.29" transform="translate(13.7 71.34) rotate(-180)"/><rect class="cls-1" x="10.34" y="31.02" width="0.43" height="9.29" transform="translate(21.1 71.34) rotate(180)"/><rect class="cls-1" x="5.99" y="21.11" width="0.43" height="12.41" transform="translate(-21.11 33.53) rotate(-90)"/><rect class="cls-1" x="5.99" y="24.73" width="0.43" height="12.41" transform="translate(-24.73 37.14) rotate(-90)"/><rect class="cls-1" x="5.99" y="8.21" width="0.43" height="12.41" transform="translate(-8.21 20.63) rotate(-90)"/><rect class="cls-1" x="0.79" y="13.49" width="0.43" height="5.39" transform="translate(2 32.36) rotate(-180)"/><rect class="cls-1" x="0.79" y="26.5" width="0.43" height="5.39" transform="translate(2 58.39) rotate(-180)"/><rect class="cls-1" x="0.79" y="39.68" width="0.43" height="5.39" transform="translate(2 84.75) rotate(-180)"/><rect class="cls-1" x="12.12" y="13.49" width="0.43" height="5.39" transform="translate(24.66 32.36) rotate(-180)"/><rect class="cls-1" x="12.12" y="26.5" width="0.43" height="5.39" transform="translate(24.66 58.39) rotate(-180)"/><rect class="cls-1" x="12.19" y="39.68" width="0.28" height="5.39" transform="translate(24.66 84.75) rotate(-180)"/><rect class="cls-1" x="5.99" y="11.83" width="0.43" height="12.41" transform="translate(-11.83 24.24) rotate(-90)"/><rect class="cls-1" x="5.99" y="38.07" width="0.43" height="12.41" transform="translate(-38.07 50.48) rotate(-90)"/><rect class="cls-1" x="5.99" y="34.13" width="0.43" height="12.41" transform="translate(-34.13 46.54) rotate(-90)"/><path class="cls-1" d="M41.37,3.32V7.11H76.15V50.66H41.37v3.79H79.94V3.32Z"/><path class="cls-2" d="M60.61,35.6a1.62,1.62,0,0,1-.38,1.46l-4.31,5.07a2.66,2.66,0,0,1-.78.67,3.45,3.45,0,0,1-1,.4l-.21,0-.46.06a16.38,16.38,0,0,1-2.2,0,16.59,16.59,0,0,1-3.78-.82,31,31,0,0,1-5.17-2.29,37,37,0,0,1-6.3-4.46,38.93,38.93,0,0,1-4.5-4.32,33.41,33.41,0,0,1-3-3.9,22.29,22.29,0,0,1-1.78-3.31,18.28,18.28,0,0,1-.9-2.6,8.8,8.8,0,0,1-.29-1.74q0-.64,0-.71a3.45,3.45,0,0,1,.23-1,2.66,2.66,0,0,1,.53-.88l4.31-5.11a1.56,1.56,0,0,1,1.09-.59,1.33,1.33,0,0,1,.84.2,2.47,2.47,0,0,1,.66.6l4.4,6.86a1.73,1.73,0,0,1,.28,1.22,2.21,2.21,0,0,1-.51,1.18l-1.59,1.88a.59.59,0,0,0-.1.24.88.88,0,0,0,0,.27,6.41,6.41,0,0,0,.78,1.65,15.65,15.65,0,0,0,1.49,2,23.08,23.08,0,0,0,2.75,2.6,23.53,23.53,0,0,0,3,2.29A16.41,16.41,0,0,0,46,33.61a5.52,5.52,0,0,0,1.32.4l.45.05a.85.85,0,0,0,.23-.07.59.59,0,0,0,.22-.14L50,31.62a2.18,2.18,0,0,1,1.44-.69,1.86,1.86,0,0,1,1,.13h0l7.17,3.46A1.79,1.79,0,0,1,60.61,35.6Z"/><path class="cls-1" d="M60.62,35.6a1.79,1.79,0,0,0-1-1.09l-7.17-3.46h0a1.86,1.86,0,0,0-1-.13,2.18,2.18,0,0,0-1.44.69l-1.84,2.22A.59.59,0,0,1,48,34a.85.85,0,0,1-.23.07L47.28,34a5.52,5.52,0,0,1-1.32-.4,16.42,16.42,0,0,1-2.18-1.15,21.2,21.2,0,0,1-2.4-1.75v8.87c.33.2.66.4,1,.58a31,31,0,0,0,5.17,2.29,16.59,16.59,0,0,0,3.78.82,16.37,16.37,0,0,0,2.2,0l.46-.06.21,0a3.45,3.45,0,0,0,1-.4,2.66,2.66,0,0,0,.78-.67l4.31-5.07A1.62,1.62,0,0,0,60.62,35.6Z"/></g></g></svg>