<?xml version="1.0" standalone="no"?>
<!DOCTYPE svg PUBLIC "-//W3C//DTD SVG 20010904//EN"
 "http://www.w3.org/TR/2001/REC-SVG-20010904/DTD/svg10.dtd">
<svg version="1.0" xmlns="http://www.w3.org/2000/svg"
 width="292.000000pt" height="292.000000pt" viewBox="0 0 292.000000 292.000000"
 preserveAspectRatio="xMidYMid meet">
<metadata>
Created by potrace 1.11, written by Peter Selinger 2001-2013
</metadata>
<g transform="translate(0.000000,292.000000) scale(0.100000,-0.100000)"
fill="#000000" stroke="none">
<path d="M794 2783 c4 -7 -17 -19 -62 -32 -156 -49 -325 -190 -347 -292 -4
-16 -10 -29 -14 -29 -10 0 -10 -10 -10 -112 1 -142 1 -141 10 -126 7 11 9 11
9 0 0 -37 62 -132 130 -202 86 -89 183 -168 360 -295 297 -212 352 -273 330
-370 -14 -60 -49 -95 -130 -126 -148 -57 -320 18 -446 196 l-20 29 -102 -69
c-56 -39 -110 -74 -120 -80 -32 -19 -34 -32 -18 -125 5 -34 50 -105 91 -144
49 -48 152 -105 235 -130 30 -10 62 -21 71 -26 20 -10 369 -10 369 0 0 5 -32
6 -71 3 -49 -4 -70 -2 -68 5 23 63 315 639 322 635 6 -3 7 -1 3 5 -5 9 93 223
111 242 6 7 66 -62 109 -125 37 -53 74 -158 74 -207 0 -18 -40 -109 -102 -230
-87 -171 -107 -204 -140 -225 -47 -32 -50 -42 -4 -13 l35 21 -45 -82 c-24 -46
-44 -88 -44 -94 0 -6 -6 -17 -12 -24 -10 -11 -10 -13 0 -7 12 7 14 -51 14
-497 0 -95 3 -135 10 -131 6 4 147 8 312 8 166 1 306 4 311 8 6 3 34 8 63 12
201 24 386 168 485 378 32 67 77 219 77 260 0 16 3 27 8 25 11 -8 6 251 -7
328 -39 226 -155 434 -306 549 -84 65 -229 119 -357 134 l-67 8 -80 -158 -80
-158 57 -1 c290 -3 459 -126 518 -376 22 -93 22 -269 0 -353 -45 -170 -133
-274 -266 -315 -36 -11 -109 -18 -213 -22 l-157 -6 0 499 c1 475 0 502 -19
558 -25 72 -51 113 -119 194 l-53 63 20 33 c12 18 21 35 21 37 0 2 -30 4 -67
3 -68 -1 -98 9 -86 29 3 6 1 7 -5 3 -14 -9 -380 256 -469 339 -54 50 -65 67
-70 100 -6 46 18 85 70 111 37 20 129 26 188 13 68 -15 178 -73 239 -127 l55
-49 119 91 c127 96 157 116 166 111 3 -2 6 4 7 13 1 30 -171 159 -297 222 -75
38 -194 80 -225 80 -12 0 -25 3 -29 7 -9 9 -158 11 -213 3 -25 -4 -47 -2 -54
4 -9 8 -10 8 -5 -1z"/>
<path d="M1611 2134 c0 -11 3 -14 6 -6 3 7 2 16 -1 19 -3 4 -6 -2 -5 -13z"/>
<path d="M1270 904 c-52 -27 -48 -31 10 -8 22 9 40 20 40 25 0 5 -1 8 -2 8 -2
-1 -23 -12 -48 -25z"/>
<path d="M1175 870 c-13 -5 -14 -9 -5 -9 8 0 24 4 35 9 13 5 14 9 5 9 -8 0
-24 -4 -35 -9z"/>
<path d="M355 850 c-3 -5 -1 -10 4 -10 6 0 11 5 11 10 0 6 -2 10 -4 10 -3 0
-8 -4 -11 -10z"/>
</g>
</svg>
