<svg class="letter" xmlns="http://www.w3.org/2000/svg" viewBox="0 0 79.94 56.25">
    <g>
        <rect class="letter-1" x="39.85" y="-36.97" width="0.17" height="79.86"
              transform="translate(36.97 42.9) rotate(-90)"/>
        <rect class="letter-1" x="39.85" y="-33.35" width="0.17" height="79.86"
              transform="translate(33.35 46.52) rotate(-90)"/>
        <rect class="letter-1" x="39.85" y="13.99" width="0.17" height="79.86"
              transform="translate(-13.99 93.85) rotate(-90)"/>
        <rect class="letter-1" x="39.85" y="10.26" width="0.17" height="79.86"
              transform="translate(-10.26 90.13) rotate(-90)"/>
        <rect class="letter-1" x="3.16" width="0.17" height="56.25" transform="translate(6.5 56.25) rotate(-180)"/>
        <rect class="letter-1" x="6.86" width="0.17" height="56.25" transform="translate(13.9 56.25) rotate(-180)"/>
        <rect class="letter-1" x="20.27" y="25.69" width="0.17" height="29.57"
              transform="translate(3.32 82.45) rotate(-131.21)"/>
        <rect class="letter-1" x="25.42" y="-0.68" width="0.17" height="42.69"
              transform="translate(57.85 15.09) rotate(131.21)"/>
        <rect class="letter-1" x="24.09" y="1.38" width="0.17" height="45.88"
              transform="translate(58.4 22.15) rotate(131.21)"/>
        <rect class="letter-1" x="17.87" y="23.46" width="0.17" height="29.48"
              transform="translate(1.05 76.87) rotate(-131.21)"/>
        <path class="letter-2"
              d="M41.37,2.87V6.67H73L41.37,34.45h0v5L51.1,31,73,50.21H41.37V54H79.94V2.87Zm34.77,45L54,28.43,76.15,9Z"/>
    </g>
</svg>