<svg xmlns="http://www.w3.org/2000/svg" viewBox="0 0 138.39 195.17"><defs><style>.cls-1{fill:#979695;}.cls-2{fill:#3b3c3b;}.cls-3{fill:none;stroke:#afafaf;stroke-miterlimit:10;stroke-width:0.25px;}.cls-4{fill:#201600;}</style></defs><title>Logo_SD</title><g id="Слой_2" data-name="Слой 2"><g id="Слой_1-2" data-name="Слой 1"><path class="cls-1" d="M34.89,126.63"/><path class="cls-2" d="M2.23,191A3.58,3.58,0,0,0,5,192.57a3,3,0,0,0,1.5-.33,1.08,1.08,0,0,0,.59-1,1,1,0,0,0-.7-.89l-3-.7a4.73,4.73,0,0,1-2.21-1.34,3,3,0,0,1-.84-2,3.65,3.65,0,0,1,1.35-3,4.8,4.8,0,0,1,3.15-1.11,5.94,5.94,0,0,1,4.55,1.93l-2.1,1.62a3.06,3.06,0,0,0-2.3-.95,2.37,2.37,0,0,0-1.43.37,1.09,1.09,0,0,0-.5.89q0,.74,1.05,1.17l3,.68q2.67,1,2.67,3.34A3.69,3.69,0,0,1,8.6,194,5,5,0,0,1,5,195.17a5.88,5.88,0,0,1-5-2.67Z"/><path class="cls-2" d="M12.38,182.55h2.71v4.82H20.5v-4.82h2.71V194.8H20.5V190H15.09v4.82H12.38Z"/><path class="cls-2" d="M35.19,193.32H28.63l-.73,1.48h-3l6-12.25h2l6,12.25h-3Zm-1.27-2.6-2-4.1-2,4.1Z"/><path class="cls-2" d="M40.6,194.8V182.55h5.23a6.26,6.26,0,0,1,4.5,1.8,5.94,5.94,0,0,1,0,8.65,6.26,6.26,0,0,1-4.5,1.8Zm2.71-9.65v7.05h2.52a3.6,3.6,0,0,0,2.59-1,3.43,3.43,0,0,0,0-5,3.61,3.61,0,0,0-2.59-1Z"/><path class="cls-2" d="M63,182.55v2.6h-5.8v2.23h4.64V190H57.22v2.23H63v2.6h-8.5V182.55Z"/><path class="cls-2" d="M71.52,194.8V182.55h5.23a6.26,6.26,0,0,1,4.5,1.8,5.94,5.94,0,0,1,0,8.65,6.26,6.26,0,0,1-4.5,1.8Zm2.71-9.65v7.05h2.52a3.6,3.6,0,0,0,2.59-1,3.43,3.43,0,0,0,0-5,3.61,3.61,0,0,0-2.59-1Z"/><path class="cls-2" d="M93.94,182.55v2.6h-5.8v2.23h4.64V190H88.14v2.23h5.8v2.6h-8.5V182.55Z"/><path class="cls-2" d="M98.08,191a3.58,3.58,0,0,0,2.81,1.53,3,3,0,0,0,1.5-.33,1.08,1.08,0,0,0,.59-1,1,1,0,0,0-.7-.89l-3-.7a4.73,4.73,0,0,1-2.21-1.34,3,3,0,0,1-.84-2,3.65,3.65,0,0,1,1.35-3,4.8,4.8,0,0,1,3.15-1.11,5.94,5.94,0,0,1,4.55,1.93l-2.1,1.62a3.06,3.06,0,0,0-2.3-.95,2.37,2.37,0,0,0-1.43.37,1.09,1.09,0,0,0-.5.89q0,.74,1.05,1.17l3,.68q2.67,1,2.67,3.34a3.69,3.69,0,0,1-1.24,2.75,5,5,0,0,1-3.56,1.18,5.88,5.88,0,0,1-5-2.67Z"/><path class="cls-2" d="M110.94,182.55V194.8h-2.71V182.55Z"/><path class="cls-2" d="M125,193.06a7,7,0,0,1-9.79.21,6.32,6.32,0,0,1,0-9.19,7,7,0,0,1,9.57,0l-1.92,1.84a4.17,4.17,0,0,0-5.74,0,3.78,3.78,0,0,0,0,5.51,4.18,4.18,0,0,0,5.16.46V190h-2.47v-2.6H125Z"/><path class="cls-2" d="M130.66,187.59v7.21H128V182.55h2.23l5.5,7.21v-7.21h2.71V194.8h-2.23Z"/><rect class="cls-1" x="60.78" y="52.33" width="0.17" height="109.92"/><path class="cls-3" d="M77.54,24.69l-16.82,11A26.1,26.1,0,0,0,40.6,26.44,12.16,12.16,0,0,0,33.3,28.5q-2.84,2.06-2.84,4.64a7.28,7.28,0,0,0,2,4.88q2.76,3.07,16.64,13.18,13,9.35,15.75,11.79,6.9,6,9.78,11.47a25.29,25.29,0,0,1,2.88,12q0,12.62-10.14,20.85T41,115.5q-12.74,0-22.19-5.37c-6.3-3.58-10.69-8.76-10.69-17.43l13.57-9.35q8.6,13.6,19.8,13.6A16.11,16.11,0,0,0,51.28,94q4-2.93,4-6.76a10.74,10.74,0,0,0-3-7q-3-3.49-13.23-10.67Q19.53,55.94,13.85,48.51T8.17,33.69q0-10.67,9.45-18.31T40.95,7.75a41.7,41.7,0,0,1,17,3.56A68.92,68.92,0,0,1,77.54,24.69Z"/><rect class="cls-1" x="42.06" y="-34.49" width="0.17" height="84.25" transform="translate(34.5 49.78) rotate(-90)"/><rect class="cls-1" x="38.29" y="77.03" width="0.17" height="76.71" transform="translate(-77.01 153.75) rotate(-90)"/><rect class="cls-1" x="95.18" y="111.54" width="0.17" height="86.25" transform="translate(-59.41 249.93) rotate(-90)"/><rect class="cls-1" x="84.55" y="6.79" width="0.17" height="107.5" transform="translate(24.1 145.17) rotate(-90)"/><rect class="cls-1" x="130.74" y="52.33" width="0.17" height="109.92"/><rect class="cls-1" x="77.96" y="34.77" width="0.17" height="99.21" transform="translate(46.34 -26.1) rotate(26.76)"/><rect class="cls-1" x="56.37" y="36.77" width="0.17" height="99.21" transform="translate(43.85 -16.04) rotate(26.15)"/><rect class="cls-1" x="8.17" y="0.13" width="0.18" height="123.25"/><rect class="cls-1" x="77.46" width="0.17" height="162.25"/><path class="cls-4" d="M73.39,57.81"/><path class="cls-2" d="M42.39,115.55l26.89-55.1H61.72c-2.73-2.1-7-5.22-12.59-9.25C39.92,44.46,34.51,40,32.68,38a7,7,0,0,1-2-4.75,5.48,5.48,0,0,1,2.56-4.66,12.06,12.06,0,0,1,7.27-2.06c6.09,0,14.9,3.52,20.78,10.59L77.63,24.67c-6.24-6.28-14.55-10.93-19.91-13.31A41.32,41.32,0,0,0,40.81,7.8Q27,7.8,17.6,15.44c-6.27,5.09-9.43,11.19-9.41,18.31,0,5,1.89,9.9,5.65,14.82s12.12,12,25,21.1q10.18,7.18,13.17,10.67a10.77,10.77,0,0,1,3,7q0,3.84-4,6.76A16,16,0,0,1,41.31,97Q30.17,97,21.61,83.4L8.1,92.75c0,8.67,4.36,13.85,10.63,17.43s13.63,5.37,22.08,5.37Z"/><path class="cls-2" d="M124.86,82.11q-6.05-11.47-15.41-16.57C104.72,63,98.54,61.07,90,60.45l-8.72,17.3h2q15.66,0,22.74,7.44,7.86,8.28,7.86,23.29,0,9.76-3.3,16.43t-8.49,9.5q-5.19,2.82-16.71,2.82h-7.8V85.08L60.78,118.44l.18,36.3h20.2q17.15,0,24.1-2.31a32.7,32.7,0,0,0,12.92-8.33,41.89,41.89,0,0,0,9.35-15.16,57.23,57.23,0,0,0,3.39-20Q130.91,93.58,124.86,82.11Z"/></g></g></svg>